<?xml version="1.0" encoding="utf-8"?>
<!-- Generator: Adobe Illustrator 25.4.8, SVG Export Plug-In . SVG Version: 6.00 Build 0)  -->
<svg version="1.1" id="Layer_1" xmlns="http://www.w3.org/2000/svg" xmlns:xlink="http://www.w3.org/1999/xlink" x="0px" y="0px"
	 viewBox="0 0 80.09 77.71" style="enable-background:new 0 0 80.09 77.71;" xml:space="preserve">
<style type="text/css">
	.st0{fill:#010101;}
	.st1{fill:none;stroke:#FFFFFF;stroke-width:1.4272;stroke-miterlimit:10;}
	.st2{fill:none;stroke:#FFFFFF;stroke-width:1.7227;stroke-miterlimit:10;}
	.st3{fill:none;stroke:#FFFFFF;stroke-width:4.3068;stroke-miterlimit:10;}
	.st4{fill:none;stroke:#FFFFFF;stroke-width:1.3542;stroke-miterlimit:10;}
	.st5{fill:none;stroke:#FFFFFF;stroke-width:0.948;stroke-linecap:round;stroke-miterlimit:10;}
	.st6{fill:#FFFFFF;}
	.st7{font-family:'Calibre-Regular';}
	.st8{font-size:13.7977px;}
	.st9{fill:none;stroke:#FFFFFF;stroke-width:1.8793;stroke-miterlimit:10;}
</style>
<g id="XMLID_00000129180858152219912050000017799618939983727547_">
	<path id="XMLID_00000094617977020694136530000004334087517006414754_" class="st6" d="M55.03,16.13c-0.46-0.46-1.06-0.71-1.71-0.71
		H26.04c-0.64,0-1.25,0.25-1.71,0.71c-0.46,0.46-0.71,1.07-0.71,1.71v17.89c0,0.64,0.25,1.25,0.71,1.71
		c0.46,0.46,1.07,0.71,1.71,0.71h27.27c0.65,0,1.25-0.25,1.71-0.71c0.46-0.46,0.71-1.06,0.71-1.71V17.84
		C55.73,17.2,55.48,16.59,55.03,16.13C55.03,16.13,55.03,16.13,55.03,16.13z M54.43,35.73c0,0.3-0.12,0.58-0.33,0.79
		c-0.21,0.21-0.49,0.33-0.79,0.33H26.05c-0.3,0-0.58-0.12-0.79-0.32c-0.21-0.21-0.33-0.49-0.33-0.79V17.84
		c0-0.3,0.12-0.58,0.32-0.79c0.21-0.21,0.49-0.33,0.79-0.33h27.27c0.3,0,0.58,0.12,0.79,0.33c0.21,0.21,0.33,0.49,0.33,0.79V35.73z"
		/>
	<path id="XMLID_00000093144076055249175160000002843576828755870899_" class="st6" d="M46.21,26.3l-6.14-3.88l0,0l-4.19-2.65
		c-0.2-0.13-0.45-0.13-0.66-0.02c-0.21,0.11-0.34,0.33-0.34,0.57l-0.07,12.97c0,0.24,0.13,0.46,0.33,0.57
		c0.1,0.06,0.21,0.08,0.32,0.08c0.12,0,0.24-0.03,0.34-0.1l10.4-6.43c0.19-0.12,0.31-0.33,0.31-0.55
		C46.51,26.63,46.4,26.42,46.21,26.3z M36.12,32.11l0.06-10.61l8.46,5.35L36.12,32.11z"/>
</g>
<text transform="matrix(1 0 0 1 7.8666 62.289)" class="st6 st7 st8">Retail Reels</text>
</svg>
