<?xml version="1.0" encoding="utf-8"?>
<!-- Generator: Adobe Illustrator 25.4.8, SVG Export Plug-In . SVG Version: 6.00 Build 0)  -->
<svg version="1.1" id="Layer_1" xmlns="http://www.w3.org/2000/svg" xmlns:xlink="http://www.w3.org/1999/xlink" x="0px" y="0px"
	 viewBox="0 0 80.09 77.71" style="enable-background:new 0 0 80.09 77.71;" xml:space="preserve">
<style type="text/css">
	.st0{fill:#010101;}
	.st1{fill:none;stroke:#FFFFFF;stroke-width:1.4272;stroke-miterlimit:10;}
	.st2{fill:#FFFFFF;}
	.st3{font-family:'Calibre-Regular';}
	.st4{font-size:13.7977px;}
	.st5{fill:none;stroke:#FFFFFF;stroke-width:1.7227;stroke-miterlimit:10;}
	.st6{fill:none;stroke:#FFFFFF;stroke-width:4.3068;stroke-miterlimit:10;}
	.st7{fill:none;stroke:#FFFFFF;stroke-width:1.3542;stroke-miterlimit:10;}
	.st8{fill:none;stroke:#FFFFFF;stroke-width:0.948;stroke-linecap:round;stroke-miterlimit:10;}
	.st9{fill:none;stroke:#FFFFFF;stroke-width:1.8793;stroke-miterlimit:10;}
</style>
<g>
	<path class="st1" d="M23.24,29.74c0.28-0.33,0.55-0.7,0.86-0.99c2.19-2.11,4.4-4.21,6.6-6.32c1.69-1.61,3.38-3.21,5.06-4.82
		c1.12-1.07,2.23-2.15,3.36-3.21c0.99-0.93,2.39-0.93,3.38,0.01c1.71,1.62,3.4,3.25,5.1,4.88c0.03,0.03,0.07,0.06,0.16,0.12
		c0.01-0.15,0.02-0.26,0.02-0.37c0-1.4,0-2.81,0-4.21c0-0.8,0.22-1.04,0.9-1.04c1.26,0,2.52,0,3.79,0c0.65,0,0.88,0.26,0.88,1.01
		c0,3.2,0,6.41,0,9.61c0,0.26,0.07,0.44,0.24,0.6c1.44,1.36,2.88,2.72,4.31,4.1c0.18,0.17,0.31,0.41,0.47,0.62c0,0.15,0,0.3,0,0.45
		c-0.46,0.65-0.91,1.29-1.38,1.93c-0.4,0.55-0.76,0.6-1.25,0.14c-1.31-1.24-2.61-2.5-3.91-3.74c-1.15-1.1-2.3-2.19-3.44-3.29
		c-1.18-1.13-2.37-2.26-3.55-3.39c-1.28-1.22-2.55-2.44-3.83-3.67c-0.15-0.14-0.25-0.15-0.41,0c-1.16,1.13-2.33,2.24-3.5,3.36
		c-1.16,1.11-2.33,2.22-3.49,3.33c-1.17,1.12-2.34,2.23-3.51,3.35c-1.31,1.25-2.61,2.49-3.92,3.74c-0.15,0.14-0.3,0.3-0.46,0.42
		c-0.37,0.3-0.7,0.28-1-0.12c-0.51-0.68-1-1.38-1.49-2.07C23.24,30.04,23.24,29.89,23.24,29.74z"/>
	<path class="st1" d="M43.59,43.71c0-3.19,0-6.36,0-9.54c-0.12-0.01-0.22-0.02-0.31-0.02c-1.66,0-3.31,0.01-4.97-0.01
		c-0.25,0-0.32,0.08-0.31,0.36c0.01,2.93,0.01,5.85,0.01,8.78c0,0.14,0,0.27,0,0.45c-0.13,0-0.23,0-0.33,0c-2.62,0-5.24,0-7.85,0
		c-1.01,0-1.57-0.63-1.57-1.79c0-3.85,0-7.7-0.01-11.55c0-0.29,0.09-0.46,0.28-0.64c1.94-1.82,3.86-3.65,5.79-5.47
		c1.7-1.61,3.4-3.21,5.11-4.81c0.45-0.43,0.9-0.86,1.36-1.3c0.69,0.65,1.36,1.28,2.02,1.91c1.95,1.84,3.91,3.69,5.86,5.53
		c1.5,1.42,3,2.83,4.49,4.26c0.09,0.09,0.17,0.27,0.17,0.41c0.01,3.95,0.01,7.89,0,11.84c0,0.95-0.57,1.61-1.4,1.62
		c-2.73,0.01-5.46,0.01-8.19,0C43.72,43.74,43.68,43.73,43.59,43.71z"/>
</g>
<text transform="matrix(1 0 0 1 24.4148 64.2327)" class="st2 st3 st4">Home</text>
</svg>
