<?xml version="1.0" encoding="utf-8"?>
<!-- Generator: Adobe Illustrator 25.4.8, SVG Export Plug-In . SVG Version: 6.00 Build 0)  -->
<svg version="1.1" id="Layer_1" xmlns="http://www.w3.org/2000/svg" xmlns:xlink="http://www.w3.org/1999/xlink" x="0px" y="0px"
	 viewBox="0 0 80.09 77.71" style="enable-background:new 0 0 80.09 77.71;" xml:space="preserve">
<style type="text/css">
	.st0{fill:#010101;}
	.st1{fill:none;stroke:#FFFFFF;stroke-width:1.4272;stroke-miterlimit:10;}
	.st2{fill:none;stroke:#FFFFFF;stroke-width:1.7227;stroke-miterlimit:10;}
	.st3{fill:none;stroke:#FFFFFF;stroke-width:4.3068;stroke-miterlimit:10;}
	.st4{fill:none;stroke:#FFFFFF;stroke-width:1.3542;stroke-miterlimit:10;}
	.st5{fill:none;stroke:#FFFFFF;stroke-width:0.948;stroke-linecap:round;stroke-miterlimit:10;}
	.st6{fill:#FFFFFF;}
	.st7{font-family:'Calibre-Regular';}
	.st8{font-size:13.7977px;}
	.st9{fill:none;stroke:#FFFFFF;stroke-width:1.8793;stroke-miterlimit:10;}
</style>
<g id="XMLID_00000152965931159221520340000008307824979584404413_">
	<path id="XMLID_00000055692315511112243830000012220176765476036751_" class="st6" d="M53.8,43.89c-4.01,0-8.01,0-12.02,0
		c1.3-1.33,2.6-2.67,3.9-4c0.07,0,0.13-0.02,0.19-0.04c0.01,0,0.02-0.01,0.03-0.01c0,0,0.01,0,0.01-0.01
		c0.13-0.05,0.24-0.15,0.31-0.31c2.57-6.16,5.14-12.32,7.7-18.49c0.36-0.87,0.73-1.75,1.09-2.62c0.03-0.06,0.04-0.11,0.05-0.17
		c0.5-1.65-0.16-3.47-1.84-4.16c-1.66-0.69-3.64,0.12-4.33,1.79c-2.57,6.16-5.13,12.32-7.7,18.49c-0.36,0.87-0.73,1.75-1.09,2.62
		c-0.09,0.22-0.04,0.47,0.12,0.63c-0.01,0.5-0.02,0.99-0.03,1.49c0,0.24-0.01,0.47-0.01,0.71c-0.02,1.36-0.05,2.73-0.07,4.09
		c-5.75,0-11.5,0-17.25,0c-0.85,0-0.85,1.63,0,1.63c10.31,0,20.62,0,30.93,0C54.65,45.52,54.65,43.89,53.8,43.89z M54.04,17.35
		c-1.24-0.52-2.49-1.04-3.73-1.56C51.51,14.21,54.21,15.35,54.04,17.35z M48.91,18.94c0.29-0.69,0.57-1.38,0.86-2.07
		c1.3,0.54,2.6,1.08,3.9,1.63c-2.49,5.98-4.98,11.96-7.47,17.93c-0.29,0.69-0.57,1.38-0.86,2.07c-1.3-0.54-2.6-1.08-3.9-1.63
		C43.93,30.9,46.42,24.92,48.91,18.94z M41.39,38.41c0.96,0.4,1.92,0.8,2.89,1.2c-0.55,0.57-1.11,1.13-1.66,1.7
		c-0.42-0.18-0.84-0.35-1.27-0.53C41.37,39.99,41.38,39.2,41.39,38.41z"/>
</g>
<text transform="matrix(1 0 0 1 4.6319 63.8883)" class="st6 st7 st8">Info Sessions</text>
</svg>
