<?xml version="1.0" encoding="utf-8"?>
<!-- Generator: Adobe Illustrator 25.4.8, SVG Export Plug-In . SVG Version: 6.00 Build 0)  -->
<svg version="1.1" id="Layer_1" xmlns="http://www.w3.org/2000/svg" xmlns:xlink="http://www.w3.org/1999/xlink" x="0px" y="0px"
	 viewBox="0 0 80.09 77.71" style="enable-background:new 0 0 80.09 77.71;" xml:space="preserve">
<style type="text/css">
	.st0{fill:#010101;}
	.st1{fill:none;stroke:#FFFFFF;stroke-width:1.4272;stroke-miterlimit:10;}
	.st2{fill:none;stroke:#FFFFFF;stroke-width:1.7227;stroke-miterlimit:10;}
	.st3{fill:none;stroke:#FFFFFF;stroke-width:4.3068;stroke-miterlimit:10;}
	.st4{fill:none;stroke:#FFFFFF;stroke-width:1.3542;stroke-miterlimit:10;}
	.st5{fill:none;stroke:#FFFFFF;stroke-width:0.948;stroke-linecap:round;stroke-miterlimit:10;}
	.st6{fill:#FFFFFF;}
	.st7{font-family:'Calibre-Regular';}
	.st8{font-size:13.7977px;}
	.st9{fill:none;stroke:#FFFFFF;stroke-width:1.8793;stroke-miterlimit:10;}
</style>
<g>
	<g>
		<circle class="st2" cx="49.83" cy="26.95" r="9.88"/>
		<g>
			<line class="st2" x1="60.31" y1="35.92" x2="57.88" y2="33.49"/>
			<line class="st3" x1="67" y1="42.6" x2="60.31" y2="35.92"/>
		</g>
	</g>
	<path class="st4" d="M39.75,26.97c0-4.91,3.59-8.98,8.29-9.74v-1.45c0-1.31-1.07-2.39-2.39-2.39H26.54c-1.31,0-2.39,1.07-2.39,2.39
		v24.84c0,1.31,1.07,2.39,2.39,2.39h19.11c1.31,0,2.39-1.07,2.39-2.39v-3.92C43.34,35.95,39.75,31.89,39.75,26.97z"/>
	<line class="st5" x1="28.93" y1="20.09" x2="42.31" y2="20.09"/>
	<line class="st5" x1="28.93" y1="24.39" x2="40.4" y2="24.39"/>
	<line class="st5" x1="28.93" y1="28.69" x2="40.4" y2="28.69"/>
</g>
<text transform="matrix(1 0 0 1 8.7461 62.0378)" class="st6 st7 st8">Knowledge</text>
</svg>
