<svg xmlns="http://www.w3.org/2000/svg" viewBox="0 0 390 395.07"><defs><style>.cls-1,.cls-16{opacity:0.41;}.cls-2,.cls-5,.cls-6{fill:#dddefa;}.cls-3{opacity:0.31;}.cls-4{fill:#e8edf3;}.cls-4,.cls-5{opacity:0.47;}.cls-6{opacity:0.81;}.cls-16,.cls-17,.cls-7{fill:#3e4797;}.cls-7,.cls-8{opacity:0.58;}.cls-8{fill:#eb8e98;}.cls-15,.cls-9{fill:#fff;}.cls-10,.cls-13,.cls-20,.cls-21{fill:none;stroke-miterlimit:10;}.cls-10{stroke:#f3a5b0;stroke-width:2px;}.cls-11{fill:#ff9a9f;}.cls-12{fill:#ee808f;}.cls-13{stroke:#5996ee;}.cls-14,.cls-18{fill:#4c65b6;}.cls-15{opacity:0.62;}.cls-18{opacity:0.35;}.cls-19{fill:#5996ee;}.cls-20{stroke:#e8edf3;}.cls-21{stroke:#fff;}.cls-22{fill:#ffb8c2;}</style></defs><g id="Posts"><g class="cls-1"><path class="cls-2" d="M371.41,246.07a101.24,101.24,0,0,0-.46-17.32c-3.06-27-16.9-52.42-37.28-70.37-7.26-6.41-15.53-12.14-20.26-20.6-8-14.24-7.37-30.6-17.25-44.65a83.66,83.66,0,0,0-40.59-30.69c-48.5-16.81-116.41,10.56-110.29,69,0,.21,0,.52.07.9A21.28,21.28,0,0,1,124.51,155C79.76,156,41.24,190.53,33,234.23c-5.3,28.11,3.38,58.91,23.94,78.8,15.34,14.84,35.93,23,56.54,28.59,41.3,11.24,84.77,13.59,127.36,9.3,39.86-4,81.92-15.49,107.7-46.16C362.29,288.4,370.17,267.42,371.41,246.07Z"/></g><g class="cls-3"><circle class="cls-2" cx="166.45" cy="47.84" r="10.41" transform="translate(-5.7 66.77) rotate(-22.31)"/></g><g class="cls-3"><circle class="cls-2" cx="307.14" cy="41.5" r="5.37"/></g><g class="cls-3"><circle class="cls-2" cx="117.5" cy="71.15" r="7.2" transform="matrix(0.66, -0.75, 0.75, 0.66, -13.72, 111.79)"/></g><g class="cls-3"><circle class="cls-2" cx="34.5" cy="332.22" r="16.39"/></g><path class="cls-4" d="M372.72,77.87a18.52,18.52,0,0,0-8-24.93c-9.11-4.68-26.59-4.33-31.27,4.77s9.34,16.91,15.05,25.4C356.45,95,368,87,372.72,77.87Z"/><path class="cls-5" d="M332.92,357.6a14.19,14.19,0,0,0,19.62-4.23c4.25-6.58,5.31-19.94-1.27-24.19s-13.6,5.84-20.51,9.55C321.14,343.9,326.33,353.35,332.92,357.6Z"/><path class="cls-5" d="M64.15,36.12a17.9,17.9,0,0,0-25.3.93c-6.72,7.24-11,23.6-3.73,30.33S53.29,63.12,62.68,60C75.77,55.71,71.39,42.84,64.15,36.12Z"/><path class="cls-5" d="M24.22,114.3a73.84,73.84,0,0,0-5.12,45.29C22.74,177.35,33.8,191,30,210c-2.33,11.54-2.92,22.23-4.1,33.65-2.44,23.45,12.79,44.11,31.68,55.27,15.34,9.06,33.32,12.46,51,12.22,15.87-.22,31.72-3.15,47.1-7.09,14.82-3.8,29.32-8.81,44.86-7.23,12.92,1.32,24.56,6.9,36.59,11.07,28.73,9.94,63.54,11.35,89.81-3.79a75.82,75.82,0,0,0,35.48-82.55c-3.22-14.21-8.65-28.54-7-43.35,1.18-10.32,5.9-20.28,5-30.63-.58-6.87-3.61-13.33-7.31-19.15C339.58,107.11,316.94,92.87,293,85c-22.54-7.39-45.78-12.73-69.24-11-48.51,3.68-58.4-4-108-14.63C83.78,52.59,48,77,29.25,105.26A68.88,68.88,0,0,0,24.22,114.3Z"/><path class="cls-6" d="M57.6,136.15c-1,11.19,2.78,22.73-.38,33.81-3.78,13.28-14.71,23.22-19.17,36.25-6.59,19.25-6.27,40.83,1.73,59.59,3.85,9,9.49,17.45,17.18,23.26,11.85,9,27.39,10.92,42,9.78,21.75-1.69,44.69-11.1,66.55-8.53,12.07,1.41,15.75,14.47,22,23.08a72.14,72.14,0,0,0,27.26,22.49c19.54,9.38,43,10.27,63,1.77,21.32-9.09,39.91-31.27,38.69-56.35-.57-11.6-5.21-23.13-3.06-34.53,2.7-14.31,13.48-27.34,21.29-39a90,90,0,0,0,14.88-43.9l0-.53a59.78,59.78,0,0,0-41.16-60.13l-54.71-18c-55.52-18.26-111-17.66-162,9.14-11,5.8-29,23.08-32.74,35A32.25,32.25,0,0,0,57.6,136.15Z"/><circle class="cls-7" cx="362.64" cy="312.55" r="3.52"/><circle class="cls-7" cx="72.51" cy="345.05" r="3.52"/><circle class="cls-8" cx="294.96" cy="359.87" r="2.74"/><circle class="cls-8" cx="21.63" cy="301.23" r="3.52"/><circle class="cls-7" cx="91" cy="76.38" r="1.17"/><path class="cls-8" d="M371.59,111.57a4.23,4.23,0,1,1-3.26-5A4.23,4.23,0,0,1,371.59,111.57Z"/><path class="cls-7" d="M47.11,372.91A1.42,1.42,0,0,1,45.43,374a1.41,1.41,0,0,1,.59-2.76A1.42,1.42,0,0,1,47.11,372.91Z"/><path class="cls-9" d="M101.5,68.69h111a0,0,0,0,1,0,0v65.7A14.59,14.59,0,0,1,197.87,149H116.09a14.59,14.59,0,0,1-14.59-14.59V68.69a0,0,0,0,1,0,0Z" transform="translate(-33.81 99.54) rotate(-31.95)"/><rect class="cls-10" x="156.61" y="80.24" width="62.62" height="15.4" transform="translate(163.11 -118.05) rotate(58.05)"/><rect class="cls-10" x="110.69" y="76.53" width="90.62" height="62.62" transform="translate(-33.43 98.87) rotate(-31.95)"/><rect class="cls-10" x="98.2" y="80.1" width="90.62" height="15.4" transform="translate(-24.72 89.23) rotate(-31.95)"/><rect class="cls-10" x="114.8" y="106.73" width="90.62" height="15.4" transform="translate(-36.3 102.05) rotate(-31.95)"/><rect class="cls-10" x="131.21" y="96.07" width="62.62" height="15.4" transform="translate(164.58 -89.04) rotate(58.05)"/><rect class="cls-10" x="105.75" y="111.95" width="62.62" height="15.4" transform="translate(166.07 -59.96) rotate(58.05)"/><path class="cls-11" d="M82.76,56.23H178.1A7.81,7.81,0,0,1,185.91,64V76.29a0,0,0,0,1,0,0H75a0,0,0,0,1,0,0V64a7.81,7.81,0,0,1,7.81-7.81Z" transform="translate(-15.31 79.05) rotate(-31.95)"/><circle class="cls-12" cx="163.35" cy="42.98" r="3.87"/><path class="cls-9" d="M163.69,43.52h0a1.86,1.86,0,0,1-2.57-.6l-4.71-7.56a1.87,1.87,0,0,1,.59-2.57h0a1.86,1.86,0,0,1,2.57.6L164.29,41A1.87,1.87,0,0,1,163.69,43.52Z"/><circle class="cls-12" cx="94.62" cy="85.84" r="3.87" transform="translate(-32.66 96.83) rotate(-47.15)"/><path class="cls-9" d="M95,86.38h0a1.86,1.86,0,0,1-2.57-.6l-4.72-7.56a1.87,1.87,0,0,1,.6-2.57h0a1.86,1.86,0,0,1,2.57.6l4.72,7.56A1.88,1.88,0,0,1,95,86.38Z"/><path class="cls-12" d="M115.34,72.91A3.87,3.87,0,1,1,110,71.68,3.87,3.87,0,0,1,115.34,72.91Z"/><path class="cls-9" d="M112.4,75.5h0a1.86,1.86,0,0,1-2.57-.59l-4.72-7.56a1.89,1.89,0,0,1,.6-2.58h0a1.87,1.87,0,0,1,2.57.6L113,72.93A1.86,1.86,0,0,1,112.4,75.5Z"/><circle class="cls-12" cx="146.44" cy="53.53" r="3.87" transform="translate(20.92 146.01) rotate(-56.46)"/><path class="cls-9" d="M146.77,54.07h0a1.87,1.87,0,0,1-2.57-.6l-4.71-7.56a1.87,1.87,0,0,1,.59-2.57h0a1.88,1.88,0,0,1,2.58.6l4.71,7.56A1.86,1.86,0,0,1,146.77,54.07Z"/><path class="cls-13" d="M183.7,100a4.44,4.44,0,1,1-6.12-1.42A4.45,4.45,0,0,1,183.7,100Z"/><path class="cls-14" d="M153.31,81.54a4.44,4.44,0,1,1-6.12-1.42A4.45,4.45,0,0,1,153.31,81.54Z"/><path class="cls-13" d="M128.52,97.57a4.44,4.44,0,1,1-6.12-1.42A4.43,4.43,0,0,1,128.52,97.57Z"/><path class="cls-9" d="M272,131.54l-4.22,2.18-26-7.64L239.51,122A71.46,71.46,0,0,1,233,66.43h0l74.61,21.94h0A71.26,71.26,0,0,1,272,131.54Z"/><path class="cls-9" d="M237.7,128.29l4.22-2.19,26,7.65,2.33,4.07a71.44,71.44,0,0,1,6.5,55.57h0l-74.61-21.94h0A71.28,71.28,0,0,1,237.7,128.29Z"/><path class="cls-11" d="M307.62,88.37h0L233,66.43h0a71.46,71.46,0,0,0,6.5,55.58l2.32,4.07.09,0-4.22,2.19a71.28,71.28,0,0,0-35.57,43.16h0l74.61,21.94h0a71.44,71.44,0,0,0-6.5-55.57l-2.33-4.07-.09,0,4.22-2.18A71.26,71.26,0,0,0,307.62,88.37Z"/><path class="cls-15" d="M303.2,87.07h0L237.86,67.86h0c-5.48,18.64-4.08,38.43,3.89,54.81l1.92,4,.07,0L239.93,129c-15.57,9.42-27.48,25.29-33,43.93h0l65.35,19.21h0c5.48-18.64,4.07-38.43-3.89-54.81l-1.92-3.95-.08,0,3.81-2.31C285.81,121.58,297.72,105.71,303.2,87.07Z"/><path class="cls-12" d="M258.63,131h0l-7.51-2.21h0a39.27,39.27,0,0,1-5.08-8.87c-5.46-13.39-9.28-29.61-5-44h0L295.77,92h0c-4.25,14.46-16.86,25.86-28.86,34.1A75.83,75.83,0,0,1,258.63,131Z"/><path class="cls-11" d="M247.12,77.69h0L295.77,92h0C292,104.71,280,116.16,270,124,258.16,133.22,239,100.22,247.12,77.69Z"/><rect class="cls-12" x="245.15" y="129.08" width="7.83" height="41.19" transform="translate(52.34 -64.19) rotate(16.39)"/><path class="cls-12" d="M263.24,176.71l-14.45-14.2-7-2-19.62,4.41a13.7,13.7,0,0,0-10.14,9.5h0l54.76,16.1h0A13.82,13.82,0,0,0,263.24,176.71Z"/><rect class="cls-14" x="265.55" y="23.95" width="13.27" height="94.17" rx="2.03" transform="translate(127.24 312.13) rotate(-73.61)"/><rect class="cls-16" x="267.93" y="27.14" width="6.63" height="94.17" rx="2.03" transform="translate(123.52 313.51) rotate(-73.61)"/><rect class="cls-14" x="190.48" y="182.15" width="94.17" height="13.27" rx="2.59" transform="translate(412.21 436.93) rotate(-163.61)"/><rect class="cls-16" x="191.41" y="182.29" width="94.17" height="6.63" rx="2.59" transform="translate(414.94 430.96) rotate(-163.61)"/><polygon class="cls-17" points="186.81 322.71 186.25 322.85 147.16 332.48 146.59 332.62 144.46 363.93 146.06 363.54 201.65 349.84 203.25 349.45 186.81 322.71"/><polygon class="cls-18" points="188.42 325.32 188.42 325.32 146.39 335.67 145.64 346.68 194.2 334.72 194.32 334.69 188.42 325.32"/><rect class="cls-17" x="48.22" y="196.02" width="202.72" height="124.24" rx="6.47" transform="translate(-57.41 43.28) rotate(-13.84)"/><rect class="cls-9" x="56.37" y="204.67" width="185.22" height="102.09" rx="1.39" transform="translate(-56.85 43.06) rotate(-13.84)"/><path class="cls-14" d="M217.21,351.27,133,372h0a8.74,8.74,0,0,1,6.4-10.59l67.27-16.58a8.76,8.76,0,0,1,10.59,6.41Z"/><rect class="cls-19" x="45.41" y="206" width="185.22" height="10.45" rx="1.77" transform="translate(-46.52 39.15) rotate(-13.84)"/><path class="cls-20" d="M208.45,193.51a1.46,1.46,0,0,1-1.07,1.77,1.46,1.46,0,1,1-.7-2.84A1.47,1.47,0,0,1,208.45,193.51Z"/><path class="cls-20" d="M223.62,189.77a1.47,1.47,0,1,1-1.77-1.07A1.48,1.48,0,0,1,223.62,189.77Z"/><path class="cls-20" d="M216,191.64a1.46,1.46,0,1,1-1.77-1.07A1.46,1.46,0,0,1,216,191.64Z"/><path class="cls-14" d="M260,307.69,74.84,353.3c-3.23.8-6.73-2.1-7.8-6.47L62,326.32l196.84-48.49,5.05,20.5C265,302.7,263.2,306.89,260,307.69Z"/><path class="cls-21" d="M170.64,313.93a7.11,7.11,0,1,1-8.6-5.2A7.11,7.11,0,0,1,170.64,313.93Z"/><circle class="cls-14" cx="99.2" cy="207.87" r="73.72" transform="translate(-117.94 131.03) rotate(-45)"/><circle class="cls-9" cx="99.2" cy="207.87" r="60.16"/><path class="cls-17" d="M88,162.68h0a1.64,1.64,0,0,1-2-1.19L84.15,154a1.61,1.61,0,0,1,1.18-2h0a1.63,1.63,0,0,1,2,1.19l1.84,7.49A1.61,1.61,0,0,1,88,162.68Z"/><path class="cls-17" d="M113.06,263.71h0a1.64,1.64,0,0,1-2-1.19L109.25,255a1.61,1.61,0,0,1,1.19-2h0a1.61,1.61,0,0,1,2,1.19l1.84,7.48A1.62,1.62,0,0,1,113.06,263.71Z"/><path class="cls-17" d="M144.39,196.63h0a1.62,1.62,0,0,1,1.19-2l7.49-1.84a1.61,1.61,0,0,1,2,1.18h0a1.64,1.64,0,0,1-1.19,2l-7.49,1.84A1.61,1.61,0,0,1,144.39,196.63Z"/><path class="cls-17" d="M43.36,221.74h0a1.63,1.63,0,0,1,1.19-2L52,217.93a1.61,1.61,0,0,1,2,1.18h0a1.63,1.63,0,0,1-1.19,2l-7.48,1.84A1.62,1.62,0,0,1,43.36,221.74Z"/><path class="cls-17" d="M124.28,166.2h0a1.62,1.62,0,0,1-.55-2.23l2-3.36a1.62,1.62,0,0,1,2.23-.55h0a1.62,1.62,0,0,1,.55,2.23l-2,3.36A1.64,1.64,0,0,1,124.28,166.2Z"/><path class="cls-17" d="M70.37,255.75h0a1.62,1.62,0,0,1-.55-2.23l2.51-4.16a1.62,1.62,0,0,1,2.23-.54h0a1.61,1.61,0,0,1,.55,2.22L72.6,255.2A1.63,1.63,0,0,1,70.37,255.75Z"/><path class="cls-17" d="M140.88,233h0a1.64,1.64,0,0,1,2.23-.55l3.37,2a1.61,1.61,0,0,1,.54,2.22h0a1.61,1.61,0,0,1-2.22.55l-3.37-2A1.63,1.63,0,0,1,140.88,233Z"/><path class="cls-17" d="M51.33,179.09h0a1.63,1.63,0,0,1,2.23-.55l4.16,2.52a1.62,1.62,0,0,1,.55,2.22h0a1.62,1.62,0,0,1-2.23.55l-4.16-2.51A1.62,1.62,0,0,1,51.33,179.09Z"/><path class="cls-17" d="M99.35,207.45h0a1.78,1.78,0,0,1-2.46.6L70.3,191.9a1.8,1.8,0,0,1-.6-2.46h0a1.79,1.79,0,0,1,2.46-.6L98.75,205A1.8,1.8,0,0,1,99.35,207.45Z"/><path class="cls-17" d="M99.57,209.68h0a1.78,1.78,0,0,1-.6-2.46L112.46,185a1.8,1.8,0,0,1,2.46-.6h0a1.78,1.78,0,0,1,.6,2.46L102,209.08A1.8,1.8,0,0,1,99.57,209.68Z"/><path class="cls-14" d="M105.5,206.32a6.49,6.49,0,1,1-7.86-4.76A6.5,6.5,0,0,1,105.5,206.32Z"/><path class="cls-9" d="M358,216.25l-68.39-15.58-12.75-2.9a8.34,8.34,0,0,0-10,6.28l-29.37,129a8.34,8.34,0,0,0,6.29,10L256.51,346l68.39,15.58a15.58,15.58,0,0,0,18.65-11.73L369.7,234.9A15.58,15.58,0,0,0,358,216.25Z"/><circle class="cls-17" cx="273.09" cy="213.59" r="4.13"/><path class="cls-14" d="M273.75,213.74h0a2,2,0,0,1-2.38,1.5l-9.28-2.11a2,2,0,0,1-1.5-2.39h0a2,2,0,0,1,2.39-1.5l9.27,2.11A2,2,0,0,1,273.75,213.74Z"/><circle class="cls-17" cx="257.81" cy="280.6" r="4.13" transform="matrix(1, -0.04, 0.04, 1, -11.39, 10.91)"/><path class="cls-14" d="M258.48,280.75h0a2,2,0,0,1-2.39,1.5l-9.27-2.11a2,2,0,0,1-1.51-2.39h0a2,2,0,0,1,2.39-1.5l9.27,2.11A2,2,0,0,1,258.48,280.75Z"/><path class="cls-17" d="M263.6,255.17a4.13,4.13,0,1,1-4.94,3.11A4.12,4.12,0,0,1,263.6,255.17Z"/><path class="cls-14" d="M263.35,259.35h0a2,2,0,0,1-2.39,1.5l-9.27-2.11a2,2,0,0,1-1.5-2.39h0a2,2,0,0,1,2.39-1.5l9.27,2.11A2,2,0,0,1,263.35,259.35Z"/><circle class="cls-17" cx="246.89" cy="328.72" r="4.13" transform="matrix(1, -0.04, 0.04, 1, -13.39, 10.49)"/><path class="cls-14" d="M247.56,328.87h0a2,2,0,0,1-2.39,1.5l-9.27-2.11a2,2,0,0,1-1.51-2.39h0a2,2,0,0,1,2.39-1.5l9.27,2.11A2,2,0,0,1,247.56,328.87Z"/><path class="cls-17" d="M252.68,303.29a4.13,4.13,0,1,1-4.94,3.11A4.13,4.13,0,0,1,252.68,303.29Z"/><path class="cls-14" d="M252.43,307.47h0A2,2,0,0,1,250,309l-9.27-2.11a2,2,0,0,1-1.5-2.39h0a2,2,0,0,1,2.39-1.5l9.27,2.11A2,2,0,0,1,252.43,307.47Z"/><circle class="cls-17" cx="268.36" cy="234.34" r="4.13" transform="translate(-41.89 59.2) rotate(-11.68)"/><path class="cls-14" d="M269,234.49h0a2,2,0,0,1-2.39,1.51l-9.27-2.12a2,2,0,0,1-1.5-2.38h0a2,2,0,0,1,2.38-1.5l9.28,2.11A2,2,0,0,1,269,234.49Z"/><line class="cls-13" x1="286.46" y1="217.99" x2="358.14" y2="234.25"/><line class="cls-13" x1="283.83" y1="229.59" x2="355.51" y2="245.85"/><line class="cls-13" x1="281.2" y1="241.19" x2="352.88" y2="257.45"/><line class="cls-13" x1="278.57" y1="252.79" x2="350.24" y2="269.05"/><line class="cls-13" x1="275.93" y1="264.39" x2="347.61" y2="280.65"/><line class="cls-13" x1="273.3" y1="275.99" x2="344.98" y2="292.25"/><line class="cls-13" x1="270.67" y1="287.58" x2="342.35" y2="303.85"/><line class="cls-13" x1="268.04" y1="299.18" x2="339.71" y2="315.45"/><line class="cls-13" x1="265.4" y1="310.78" x2="337.08" y2="327.05"/><line class="cls-13" x1="262.77" y1="322.38" x2="334.45" y2="338.65"/><line class="cls-13" x1="260.14" y1="333.98" x2="331.82" y2="350.25"/><path class="cls-11" d="M307,232.85a1,1,0,0,1-1.76-.58l0-3.66-.06-6.54,4,1.32,4,1.32-3.94,5.22Z"/><path class="cls-22" d="M319.48,179.23c-.32.94-.62,1.87-.93,2.81l-8.19,24.76-4.89,14.81-.19.56,7.78,2.57,3.35-10.13,7.4-22.39c1.15-3.48,2.31-6.94,3.47-10.41Z"/><path class="cls-12" d="M331.69,155.77a4.75,4.75,0,0,0-6,3L319,179.09l9,3,6.71-20.3A4.75,4.75,0,0,0,331.69,155.77Z"/><rect class="cls-12" x="332.76" y="166.83" width="2.66" height="1" transform="translate(69.41 -96.41) rotate(18.29)"/><rect class="cls-12" x="329.83" y="175.67" width="2.66" height="1" transform="translate(72.04 -95.04) rotate(18.29)"/><rect class="cls-12" x="332.27" y="160.33" width="1.33" height="27.6" transform="translate(71.48 -95.7) rotate(18.29)"/><circle class="cls-7" cx="199.83" cy="37.86" r="3.52"/><circle class="cls-7" cx="275.45" cy="47.84" r="2.74"/><path class="cls-8" d="M81,43.39a1.66,1.66,0,1,1-1.28-2A1.67,1.67,0,0,1,81,43.39Z"/><path class="cls-7" d="M345.55,36.42a1.41,1.41,0,0,1-2.76-.59,1.41,1.41,0,1,1,2.76.59Z"/></g></svg>